# xmcd
#
# Track frame offsets:
#	150
#	34146
#	41703
#	48582
#	50442
#	84438
#	92407
#	107174
#
# Disc length: 1880 seconds
#
# Revision: 0
# Processed by: cddbd v1.5.2PL0 Copyright (c) Steve Scherf et al.
# Submitted via: audiograbber 1.83.01
#
DISCID=60075608
DTITLE=Com puc viure amb Això - Frec a Frec
DYEAR=2001
DGENRE=Teatral
TTITLE0=Entrada
TTITLE1=Xat
TTITLE2=Concert
TTITLE3=Aplaudiments
TTITLE4=Ambiental
TTITLE5=Coreo
TTITLE6=Final
TTITLE7=Sortida
EXTD=CRG
EXTT0=
EXTT1=
EXTT2=
EXTT3=
EXTT4=
EXTT5=
EXTT6=
EXTT7=
PLAYORDER=
